<?xml version="1.0" encoding="UTF-8"?><svg xmlns="http://www.w3.org/2000/svg" height="943.58" viewBox="0 0 100.15 943.58" width="100.15"><defs><linearGradient gradientUnits="userSpaceOnUse" id="a" x1="177.05" x2="-58.37" y1="908.84" y2="38.43"><stop offset="0" stop-color="#daa85c"/><stop offset=".03" stop-color="#c89b58"/><stop offset=".08" stop-color="#ae8752"/><stop offset=".13" stop-color="#9b794d"/><stop offset=".19" stop-color="#90714b"/><stop offset=".25" stop-color="#8c6e4a"/><stop offset=".3" stop-color="#93734c"/><stop offset=".37" stop-color="#a58150"/><stop offset=".45" stop-color="#c49757"/><stop offset=".51" stop-color="#daa85c"/><stop offset=".56" stop-color="#dcbb8a"/><stop offset=".62" stop-color="#decbb2"/><stop offset=".67" stop-color="#dfd7ce"/><stop offset=".71" stop-color="#e0dee0"/><stop offset=".75" stop-color="#e0e1e6"/><stop offset=".78" stop-color="#dddde0"/><stop offset=".82" stop-color="#d4d0cf"/><stop offset=".87" stop-color="#c5bcb3"/><stop offset=".93" stop-color="#b09f8d"/><stop offset=".98" stop-color="#957b5c"/><stop offset="1" stop-color="#8c6e4a"/></linearGradient></defs><g data-name="Capa 2"><g data-name="Layer 1"><path d="M90,6.77c-6.86-15.94-32.68.56-41.2,6C33.05,22.8,19,36.19,10,52.59A76.57,76.57,0,0,0,1.66,106C6,126.19,18.05,143.86,31.44,159.18,55.66,186.9,106.65,220.69,79,262.67c-10.67,16.17-27.24,27.2-39.81,41.72a111.14,111.14,0,0,0-24.64,49.73c-3.81,18.19-2.88,37.51,4.35,54.76,8,19.1,23.51,32.89,38.58,46.44C73.79,470,91.61,487,95.15,509.79c3,19.58-8,35.77-21.61,48.51-12.77,11.94-27.46,21.76-39.42,34.57-13.75,14.72-23.55,35-23.56,55.47,0,22.37,21.66,32.19,36.85,44.49,16.28,13.19,32,29.34,37.4,50.22,5,19.48.75,41.85-16.77,53.59-8.72,5.85-18.86,9.12-27.67,14.82a53.69,53.69,0,0,0-17.59,18.61c-9.11,16-10.58,35.61-8.26,53.59,2.2,17.08,7.87,35.31,20,48.05a40.06,40.06,0,0,0,20.82,11.82c2.64.55,3.77-3.39,1.12-4.07-18.66-4.82-28.92-23.26-33.81-40.59-5-17.6-6-37.34-.47-54.92a53.06,53.06,0,0,1,14.69-23.62c7.73-7,17.68-10.57,26.77-15.35,16-8.42,25.93-22,27.81-40.16,4.26-41.11-30.37-68.2-59.79-90-9.85-7.3-16.69-15.28-16.2-28.22a76.72,76.72,0,0,1,9-32.14C33.25,597.76,47.86,586,62.17,574.3c12.29-10.08,25.39-20.71,32.68-35.19,8.29-16.46,6.34-34.73-2.32-50.64C82.49,470,66,457,50.85,443S23,413.33,18.7,392.69c-3.88-18.52-1.24-38.08,5.75-55.53,7.31-18.26,19.63-32.19,33.8-45.45,12.57-11.77,26.55-24.28,31.54-41.39,5.26-18.06-2.06-35.59-13-49.87C64.33,184.2,48.11,171.34,34.67,156S9,122.36,5.46,101.74c-6.95-40.33,23.34-74.61,57-92,6.25-3.24,20.32-10.61,24.9-1.4.9,1.8,3.42.22,2.65-1.55Z" fill="url(#a)"/></g></g></svg>