<?xml version="1.0" encoding="UTF-8"?><svg xmlns="http://www.w3.org/2000/svg" xmlns:xlink="http://www.w3.org/1999/xlink" height="247.8" preserveAspectRatio="xMidYMid meet" version="1.0" viewBox="26.0 35.2 276.2 247.8" width="276.2" zoomAndPan="magnify"><g id="change1_1"><path d="m 148.1229,280.83865 c -9.2953,-0.51523 -23.14023,-2.14114 -30.7665,-3.61316 l -13.86594,-2.67639 62.81222,-0.3769 c 34.54671,-0.20729 63.29332,-0.85767 63.88131,-1.44525 0.588,-0.58761 -30.03241,-0.89357 -68.04535,-0.67992 l -69.114483,0.38845 -1.752873,-4.2318 c -1.311425,-3.16611 -1.3445,-4.99482 -0.131333,-7.26167 1.055102,-1.97148 1.560904,-12.66214 1.447933,-30.60415 -0.09558,-15.16584 0.133668,-27.88162 0.509431,-28.25731 0.375674,-0.37566 31.047055,-0.62763 68.158625,-0.55994 l 67.47559,0.12307 6.94567,-5.09859 c 7.28186,-5.34538 9.59715,-6.31545 7.85726,-3.29202 -0.57181,0.99362 -0.48296,1.29998 0.19742,0.68079 0.68038,-0.61917 1.37747,-2.0825 1.5491,-3.25183 0.27069,-1.84455 -8.3482,-2.1261 -65.08423,-2.1261 h -65.39626 l -8.27823,5.92791 c -4.55304,3.26037 -8.569435,5.63672 -8.925363,5.28081 -0.35591,-0.35593 3.204203,-3.34865 7.911363,-6.65055 l 8.55849,-6.00342 h 68.05891 68.0589 v 35.18492 c 0,33.34944 0.15074,35.32137 2.89052,37.8008 7.19722,6.51339 -0.30827,11.97093 -22.75354,16.54499 -13.40345,2.73143 -54.30516,6.34476 -62.10093,5.4861 -1.75843,-0.19369 -10.8024,-0.77369 -20.09771,-1.28891 z m 86.71522,-10.7004 c 0.49355,-1.28618 0.25126,-1.86631 -0.568,-1.35997 -0.78579,0.48564 -1.42871,1.49499 -1.42871,2.24295 0,2.07891 1.03591,1.62081 1.99671,-0.88298 z m -7.77775,-32.44333 V 204.45386 H 160.57831 94.096254 v 33.24104 33.24103 h 66.482056 66.48206 z m 13.1917,27.82129 c 1.79772,-2.29227 1.74661,-2.34339 -0.54567,-0.54567 -1.39106,1.09094 -2.52921,2.2291 -2.52921,2.52921 0,1.18951 1.18683,0.4239 3.07488,-1.98354 z m 5.78106,-4.33578 c 1.79772,-2.29228 1.7466,-2.34341 -0.54567,-0.54567 -1.39107,1.09094 -2.52921,2.22908 -2.52921,2.52919 0,1.18952 1.18683,0.42391 3.07488,-1.98352 z M 133.11833,197.2784 c 0,-3.59865 7.09654,-4.38519 39.28839,-4.35449 l 33.69735,0.0322 -3.61316,2.82625 c -3.34146,2.61374 -6.08543,2.82867 -36.49286,2.85838 -20.17916,0.0198 -32.87972,-0.50648 -32.87972,-1.36229 z m 74.23314,-31.90167 c -8.74469,-1.73121 -25.20894,-9.06406 -38.84631,-17.30142 -6.5678,-3.96714 -12.98924,-7.21296 -14.26993,-7.21296 -3.32637,0 -2.95535,-1.4993 2.69161,-10.87703 2.76104,-4.58517 6.12827,-11.33024 7.48274,-14.98904 1.35446,-3.65878 2.62885,-6.87974 2.832,-7.15768 0.82019,-1.12215 10.52275,2.97224 15.14382,6.39052 l 4.93026,3.64702 1.44526,-8.97899 c 1.43327,-8.904463 1.53616,-9.053025 12.39905,-17.901811 10.83651,-8.827317 11.07394,-8.932976 22.17773,-9.871602 11.92868,-1.008336 23.37491,-5.059535 23.62651,-8.36219 0.51862,-6.808023 3.83757,-14.174166 9.90146,-21.975667 3.81502,-4.908187 7.5508,-9.350151 8.30172,-9.871045 2.18942,-1.518719 13.00543,2.345201 19.96137,7.13102 6.57142,4.521267 17.08523,15.259648 17.08523,17.450195 0,4.771303 -19.18316,23.336858 -24.11318,23.336858 -1.11022,0 -3.88153,1.377344 -6.15844,3.060741 -2.27694,1.683397 -4.77858,2.666005 -5.55921,2.18354 -0.78063,-0.482446 -5.02549,3.914045 -9.43303,9.769981 -7.92467,10.52888 -16.53895,16.7044 -23.48107,16.83347 -1.53757,0.0286 -4.74665,1.69402 -7.13132,3.70093 l -4.33579,3.64894 9.96873,-1.0016 9.96874,-1.00158 -0.9266,9.22408 c -2.62993,26.18048 -1.96173,24.33181 -10.17712,28.15712 -7.62144,3.54876 -13.15692,4.01268 -23.48423,1.9682 z m 22.35001,-7.74769 c 1.26665,-1.26666 2.48294,-5.56249 2.79352,-9.86638 0.30254,-4.19261 0.66684,-9.24887 0.80956,-11.2361 0.23038,-3.20803 -0.32326,-3.62984 -4.93769,-3.76192 -2.85844,-0.0819 -6.9573,-0.59055 -9.10865,-1.13051 -3.57638,-0.89763 -3.77818,-0.73266 -2.35547,1.92569 2.23359,4.17351 0.49407,9.28289 -5.13302,15.07691 -3.22662,3.32239 -6.5133,5.20199 -9.61926,5.50115 -4.35021,0.41902 -3.98572,0.70878 4.67622,3.71746 10.30649,3.57985 19.15618,3.4923 22.87479,-0.2263 z m -9.18391,-11.04895 c -1.13302,-1.83325 1.85436,-5.71774 4.39724,-5.71774 2.11771,0 3.98879,3.96787 2.78758,5.91147 -1.10971,1.79554 -6.0375,1.66266 -7.18482,-0.19373 z m -33.33922,1.35683 c -3.66872,-4.05388 -3.78721,-15.74539 -0.19975,-19.70949 2.47993,-2.74027 2.32447,-2.97356 -5.39751,-8.10067 -4.37301,-2.90351 -8.22233,-5.27913 -8.55402,-5.27913 -1.37007,0 -10.76105,20.61336 -10.09692,22.16287 0.55322,1.29069 23.47571,13.31829 26.41609,13.86071 0.32192,0.0595 -0.65363,-1.26105 -2.16789,-2.93429 z m -15.74862,-14.28155 c -1.36624,-2.2106 1.92869,-5.80038 5.32396,-5.80038 2.09163,0 2.69551,0.83482 2.35223,3.25183 -0.49919,3.51495 -5.95869,5.32754 -7.67619,2.54855 z m 46.48019,-10.16129 c 4.63529,-2.35074 10.33617,-4.28228 12.66861,-4.29236 8.19151,-0.0354 16.25713,-5.48384 25.35084,-17.12499 4.75872,-6.091764 8.6647,-12.191433 8.68001,-13.554834 0.0338,-3.013813 -7.83003,-12.243267 -11.39605,-13.375084 -1.41729,-0.449838 -5.45904,0.795274 -8.99279,2.770335 -4.44482,2.48424 -10.32669,4.031436 -19.12795,5.031507 -12.36282,1.404759 -12.96697,1.652513 -22.15235,9.083927 -10.37787,8.396219 -12.01143,11.217019 -12.01143,20.741249 0,7.14555 0.45395,7.40356 7.14927,4.0635 4.08424,-2.03749 4.5935,-2.89301 3.87134,-6.50369 -0.81275,-4.0638 0.87988,-5.67251 2.76283,-2.62583 0.60124,0.97283 1.73014,0.5773 3.09381,-1.08396 1.83035,-2.22978 2.03656,-2.26018 1.39778,-0.20609 -0.96147,3.09162 2.67707,4.5434 4.84379,1.93266 1.10981,-1.33724 1.19495,-2.84917 0.25959,-4.61119 -0.97743,-1.8413 -0.81492,-3.15502 0.54594,-4.413771 2.60253,-2.407274 3.86024,-0.05641 2.66312,4.977551 -1.24129,5.21971 -4.06346,8.39863 -9.42921,10.62121 -3.02597,1.25339 -3.85676,2.24091 -2.78603,3.31164 2.69804,2.69803 1.63357,6.57435 -2.44881,8.9175 l -3.97447,2.28122 5.30217,-0.83323 c 2.9162,-0.45829 9.09469,-2.75656 13.72999,-5.10727 z m -16.70033,2.10824 c 5.03412,-2.60325 4.84538,-5.50228 -0.3991,-6.13066 -4.22412,-0.50612 -7.43651,2.65052 -6.13882,6.03224 1.10543,2.88072 1.15608,2.88147 6.53792,0.0985 z m 7.82324,-14.81135 c -0.44498,-0.44499 -1.61117,-9.2e-4 -2.59155,0.98679 -1.41672,1.42736 -1.25072,1.59337 0.80907,0.80906 1.42535,-0.54275 2.22747,-1.35088 1.78248,-1.79585 z m 63.82145,-22.209984 c 1.83974,-1.728348 3.34499,-4.307181 3.34499,-5.730751 0,-3.893348 -8.60569,-12.912526 -15.16285,-15.891376 -7.62442,-3.463705 -8.63533,-3.369867 -10.61988,0.985769 -1.98321,4.352672 -2.10199,5.423512 -0.49119,4.427969 3.65607,-2.259574 18.72858,12.886025 17.08537,17.168198 -1.22477,3.191642 1.98588,2.664298 5.84356,-0.959809 z m 17.03178,-10.076884 c 4.94091,-4.515715 7.83248,-8.2363 7.35936,-9.469266 -0.42943,-1.119025 -0.13798,-1.634494 0.64933,-1.147987 0.78579,0.485644 1.42871,-0.390873 1.42871,-1.947806 0,-3.590995 -14.7189,-17.166437 -22.40156,-20.661241 -9.10922,-4.143761 -10.8915,-3.524861 -18.06577,6.273403 -8.00258,10.929524 -8.14133,11.267001 -4.63273,11.267001 8.2178,0 22.19073,11.214953 24.26377,19.474591 0.50378,2.007274 1.44344,3.649601 2.08809,3.649601 0.64466,0 4.83454,-3.347247 9.3108,-7.438296 z m -9.10115,0.704545 c 0.2818,-1.463239 1.47901,-2.660453 2.66047,-2.660453 3.09793,0 2.65046,4.199456 -0.51236,4.808564 -1.93144,0.371955 -2.52007,-0.216672 -2.14811,-2.148111 z m 7.2204,-6.506353 c 0.26329,-1.859232 1.45424,-3.380412 2.64658,-3.380412 3.13439,0 2.7026,5.638495 -0.47869,6.251142 -2.05235,0.395257 -2.53909,-0.249281 -2.16789,-2.87073 z M 125.52015,158.40343 c -2.7742,-3.07071 -5.73603,-6.81034 -6.58185,-8.31025 -1.23199,-2.18479 -1.90064,-2.36787 -3.36216,-0.92059 -1.00337,0.99363 -2.9254,1.8066 -4.27116,1.8066 -1.34577,0 -2.7824,0.87445 -3.19254,1.94322 -0.99845,2.60196 -12.909486,5.82912 -16.872309,4.57136 -4.441623,-1.4097 -16.748328,-20.78796 -17.941769,-28.25125 -0.536219,-3.35341 -2.685283,-9.59003 -4.775668,-13.85916 -3.156339,-6.44609 -4.443186,-7.76204 -7.590362,-7.76204 -2.678078,0 -4.540922,-1.27178 -6.350873,-4.33579 -1.408676,-2.38469 -3.495917,-4.335781 -4.638334,-4.335781 -2.841089,0 -9.216001,-9.126004 -17.27564,-24.730945 C 26.065265,61.435671 25.976853,61.089749 28.573437,58.201269 32.516821,53.814641 47.490699,43.472252 56.315503,39.03999 l 7.744997,-3.889952 3.557434,3.342055 c 6.179044,5.804916 22.372234,32.887727 21.433141,35.846545 -0.471577,1.485805 0.411731,4.749402 1.986182,7.338368 2.253644,3.705817 2.496763,5.204899 1.184799,7.305669 -1.368917,2.192002 -0.945166,3.379496 2.482785,6.957502 2.27339,2.372904 7.660139,6.039843 11.970579,8.148733 8.19559,4.00973 12.81229,9.696 19.58911,24.12738 1.77304,3.77576 4.10269,6.865 5.17697,6.865 6.37075,0 15.94376,13.98836 13.92527,20.34802 -1.19567,3.7672 -7.66235,8.55723 -11.55254,8.55723 -1.93857,0 -5.2855,-2.25296 -8.29408,-5.58311 z m 7.59818,-1.4192 c 0,-0.6717 -1.23617,-2.33997 -2.74705,-3.70731 -2.98015,-2.697 -5.06696,-1.17515 -3.6067,2.63025 0.90354,2.35454 6.35375,3.27844 6.35375,1.07706 z m -36.868754,-3.1381 c -0.499281,-0.80785 -1.613707,-1.03256 -2.47648,-0.49932 -0.868845,0.53697 -1.158101,0.30512 -0.648346,-0.51966 0.506198,-0.81904 -1.007401,-4.33397 -3.363561,-7.81093 -2.356142,-3.47698 -4.295737,-6.88917 -4.3102,-7.58269 -0.04941,-2.36775 4.470081,2.4655 8.104536,8.66722 3.922058,6.6925 8.136355,9.01584 11.416245,6.29378 1.75482,-1.45636 1.45068,-2.6148 -2.02335,-7.70704 -4.942972,-7.24539 -7.779386,-12.49671 -6.749886,-12.49671 0.417301,0 3.133737,3.57702 6.036516,7.94893 3.85115,5.80024 6.17612,7.94895 8.60105,7.94895 5.39917,0 5.37184,-2.35286 -0.1272,-10.9492 -2.85817,-4.46801 -4.94758,-8.87088 -4.64315,-9.78416 0.30442,-0.91328 1.42206,-0.0363 2.48363,1.94879 1.06159,1.98513 4.77811,8.05359 8.25898,13.48549 5.11645,7.98427 6.71339,9.55698 8.33646,8.20994 1.51024,-1.25339 2.77376,-1.25617 5.09994,-0.0108 2.83366,1.51653 2.96104,1.40967 1.52283,-1.27764 -0.8632,-1.61294 -5.13982,-8.61915 -9.50358,-15.56939 -4.36378,-6.94992 -7.93413,-13.60825 -7.93413,-14.79594 0,-1.18769 2.31948,1.70452 5.1544,6.42712 6.21634,10.35565 8.61355,12.99551 7.14104,7.86392 -0.57024,-1.98723 -3.91895,-8.29232 -7.44158,-14.01132 -5.50467,-8.93684 -7.50274,-10.91761 -14.21734,-14.09413 -4.2969,-2.03275 -8.220275,-4.35563 -8.718603,-5.16194 -0.498329,-0.80632 -1.674073,-1.025975 -2.612771,-0.488121 -0.93868,0.537871 -1.247052,0.468201 -0.685267,-0.154869 0.561803,-0.622996 -0.712629,-3.491318 -2.832049,-6.374067 -2.119437,-2.882749 -3.958188,-5.428111 -4.086107,-5.656372 -0.400305,-0.714228 -22.285889,14.138669 -22.285889,15.124559 0,0.51441 1.889739,3.91888 4.199402,7.56548 4.143636,6.54218 8.807949,18.48397 8.807949,22.55055 0,2.30529 8.646667,16.36667 12.327942,20.04796 2.528419,2.5284 8.653601,3.26521 7.168533,0.86231 z m -35.15774,-48.93852 c -2.168197,-1.37436 5.084238,-7.760733 17.955693,-15.811479 8.333965,-5.21266 11.504155,-5.864959 10.059313,-2.069796 -0.724272,1.902423 -0.550556,2.120192 0.700987,0.878709 1.253538,-1.243477 0.829141,-3.11189 -1.720946,-7.576492 -1.861658,-3.259284 -3.904901,-5.931003 -4.540545,-5.937129 -3.601056,-0.03468 -23.644224,13.682611 -28.445422,19.467692 -1.732229,2.087206 -1.641788,3.105369 0.654527,7.369375 1.465449,2.72116 3.700175,4.9376 4.966056,4.92544 1.815449,-0.018 1.893674,-0.28073 0.370337,-1.24632 z" fill="#483737" stroke-width="1.445"/></g></svg>