<?xml version="1.0" encoding="UTF-8"?><svg xmlns="http://www.w3.org/2000/svg" height="3373.519" viewBox="0 0 3373.519 3373.519" width="3373.519"><defs><linearGradient gradientUnits="objectBoundingBox" id="a" x1=".5" x2=".5" y2="1"><stop offset="0" stop-color="#a27304"/><stop offset=".43" stop-color="#f9d387"/><stop offset="1" stop-color="#c49a4b"/></linearGradient></defs><path d="M5118.163,2430.134a56.9,56.9,0,0,0-55.25,43.431H4068.251a580.759,580.759,0,0,0-8.44-86.417l536.464-106.71a42.328,42.328,0,1,0-5.269-26.476l-536.439,106.711a575.2,575.2,0,0,0-25.252-83.083l918.906-380.62a56.932,56.932,0,1,0-10.331-24.937L4018.962,2252.66a580.43,580.43,0,0,0-41.054-76.491l454.959-303.988a42.334,42.334,0,1,0-15-22.44l-454.987,304.008a584.923,584.923,0,0,0-55.115-67.032l703.507-703.507a56.924,56.924,0,1,0-19.089-19.087l-703.5,703.506a584.642,584.642,0,0,0-67.032-55.11l304.007-454.993a42.335,42.335,0,1,0-22.439-15l-303.988,454.96a579.811,579.811,0,0,0-76.491-41.049l380.634-918.933a56.932,56.932,0,1,0-24.937-10.329l-380.626,918.906a574.933,574.933,0,0,0-83.083-25.254l106.709-536.437a42.343,42.343,0,1,0-26.475-5.27l-106.711,536.464a580.329,580.329,0,0,0-86.417-8.44V912.483a56.93,56.93,0,1,0-26.989,0v994.662a580.289,580.289,0,0,0-86.414,8.44l-106.712-536.464a42.334,42.334,0,1,0-26.475,5.27l106.711,536.437a574.936,574.936,0,0,0-83.083,25.254l-380.628-918.906a56.927,56.927,0,1,0-24.935,10.329l380.634,918.933a579.583,579.583,0,0,0-76.492,41.049l-303.988-454.96a42.336,42.336,0,1,0-22.441,15l304.009,454.993a584.35,584.35,0,0,0-67.033,55.11l-703.506-703.506a56.932,56.932,0,1,0-19.088,19.087l703.508,703.507a584.965,584.965,0,0,0-55.117,67.032L2558.8,1849.741a42.34,42.34,0,1,0-15,22.44l454.961,303.988a580.411,580.411,0,0,0-41.056,76.491l-918.926-380.627a56.935,56.935,0,1,0-10.33,24.93l918.906,380.627a575.019,575.019,0,0,0-25.254,83.083l-536.437-106.711a42.342,42.342,0,1,0-5.27,26.476l536.464,106.71a580.369,580.369,0,0,0-8.44,86.417H1913.76a56.931,56.931,0,1,0,0,26.988h994.661a580.451,580.451,0,0,0,8.44,86.422l-536.464,106.7a42.333,42.333,0,1,0,5.27,26.476l536.445-106.7a574.205,574.205,0,0,0,25.247,83.076l-918.906,380.628a56.927,56.927,0,1,0,10.33,24.937l918.926-380.634a580.38,580.38,0,0,0,41.056,76.491L2543.8,3101.943a42.327,42.327,0,1,0,15,22.434l454.986-304.008a585.028,585.028,0,0,0,55.117,67.032L2365.4,3590.908A56.929,56.929,0,1,0,2384.487,3610l703.506-703.507a584.947,584.947,0,0,0,67.033,55.117L2851.01,3416.591a42.339,42.339,0,1,0,22.441,15l303.995-454.96a580.359,580.359,0,0,0,76.492,41.056L2873.31,3936.612a56.948,56.948,0,1,0,24.929,10.337l380.628-918.913a575.121,575.121,0,0,0,83.083,25.254l-106.711,536.436a42.343,42.343,0,1,0,26.475,5.27l106.712-536.464a580.079,580.079,0,0,0,86.414,8.44v994.662a56.932,56.932,0,1,0,26.989,0V3066.973a580.118,580.118,0,0,0,86.417-8.44L3694.957,3595a42.333,42.333,0,1,0,26.475-5.27l-106.709-536.436a575.117,575.117,0,0,0,83.083-25.254l380.626,918.905a56.924,56.924,0,1,0,24.93-10.329l-380.626-918.926a580.588,580.588,0,0,0,76.491-41.056l303.994,454.96a42.332,42.332,0,1,0,22.442-15L3821.646,2961.6a585.239,585.239,0,0,0,67.032-55.117L4592.183,3610a56.935,56.935,0,1,0,19.089-19.087L3907.766,2887.4a584.986,584.986,0,0,0,55.115-67.032l454.987,304.008a42.341,42.341,0,1,0,15-22.434l-454.959-303.994a580.4,580.4,0,0,0,41.054-76.491l918.927,380.634a56.934,56.934,0,1,0,10.331-24.937l-918.906-380.628a574.664,574.664,0,0,0,25.247-83.076l536.445,106.7a42.342,42.342,0,1,0,5.269-26.476l-536.464-106.7a580.84,580.84,0,0,0,8.44-86.422h994.661a56.906,56.906,0,1,0,55.25-70.419m-1629.827,610.2c-305.074,0-553.271-248.2-553.271-553.27s248.2-553.272,553.271-553.272,553.272,248.2,553.272,553.272-248.2,553.27-553.272,553.27" data-name="Trazado 129" fill="url(#a)" transform="translate(-1801.577 -800.3)"/></svg>